<svg width="143" height="31" viewBox="0 0 143 31" fill="none" xmlns="http://www.w3.org/2000/svg">
    <path
        d="m29.898 26.596-6.561-9.667a2.3 2.3 0 0 0-.617-.614l-.54-.384c-.618-.46-.618-1.304 0-1.765l.462-.306c.232-.154.463-.384.618-.614l6.715-9.515c.54-.844.618-1.918 0-2.685-.772-.998-2.161-1.228-3.164-.537L17.085 7.03a2.3 2.3 0 0 0-.618.613l-.386.538c-.463.613-1.312.613-1.775 0l-.309-.46a2.3 2.3 0 0 0-.617-.615L3.808.432c-.85-.537-1.93-.614-2.702 0C.103 1.2-.129 2.58.566 3.578l6.561 9.668c.155.23.386.46.618.614l.54.383c.618.46.618 1.304 0 1.765l-.463.307a2.3 2.3 0 0 0-.618.614l-6.792 9.59c-.618.921-.54 2.149.231 2.916.772.768 2.007.92 2.933.307l9.726-6.522c.232-.153.463-.383.618-.614l.386-.537c.463-.613 1.312-.613 1.775 0l.309.46c.154.23.386.461.617.614l9.726 6.753c.927.613 2.162.537 2.934-.23.771-.921.849-2.149.231-3.07"
        fill="#E3B748" />
    <path
        d="M41.695 7.93h3.424v15.284h-3.424zm14.362 2.646q-2.392 0-3.468 1.345-1.053 1.323-1.053 3.64 0 1.125.263 2.05.264.905.79 1.566.526.663 1.317 1.037.79.353 1.843.353.57 0 .966-.022.418-.022.724-.088V15.14h3.424v7.565q-.615.243-1.975.508-1.361.286-3.358.286-1.712 0-3.116-.53a6.5 6.5 0 0 1-2.37-1.543q-.988-1.014-1.537-2.492-.526-1.477-.526-3.375 0-1.918.592-3.396t1.624-2.493a6.8 6.8 0 0 1 2.414-1.565 8.4 8.4 0 0 1 2.985-.53q1.075 0 1.931.155a9.6 9.6 0 0 1 1.492.33q.637.177 1.032.375.417.2.592.31l-.987 2.756a8.3 8.3 0 0 0-1.624-.64 6.5 6.5 0 0 0-1.975-.286m12.139 10.014q.725 0 1.185-.11.483-.133.768-.331.285-.22.395-.508.11-.285.11-.64 0-.748-.702-1.234-.702-.508-2.414-1.08a21 21 0 0 1-1.492-.596 6 6 0 0 1-1.34-.86 4.3 4.3 0 0 1-.965-1.258q-.373-.75-.373-1.808t.395-1.897a4.05 4.05 0 0 1 1.12-1.456q.723-.595 1.755-.904 1.032-.33 2.326-.33 1.537 0 2.656.33t1.843.728l-.987 2.713q-.637-.33-1.427-.574-.768-.264-1.865-.264-1.23 0-1.778.352-.527.331-.527 1.037 0 .42.198.706.197.286.549.53.372.22.834.418.481.177 1.053.375 1.185.441 2.063.882.878.42 1.448.993.593.573.878 1.345t.285 1.875q0 2.139-1.492 3.33-1.492 1.17-4.499 1.17-1.01 0-1.821-.133a11 11 0 0 1-1.449-.287 9 9 0 0 1-1.075-.375 9 9 0 0 1-.746-.375l.965-2.735q.681.375 1.668.684 1.01.287 2.458.287M87.673 7.93v2.932h-4.586v12.352h-3.424V10.862h-4.587V7.93zm8.148 15.592q-1.602 0-2.765-.44-1.164-.465-1.931-1.258a5.3 5.3 0 0 1-1.12-1.919q-.35-1.125-.35-2.47V7.929h3.423v9.22q0 .926.197 1.587.22.64.57 1.059.374.398.879.573a3.6 3.6 0 0 0 1.14.177q1.252 0 2.02-.772.79-.773.79-2.625V7.93h3.424v9.506q0 1.345-.373 2.47a5.2 5.2 0 0 1-1.142 1.941q-.768.794-1.953 1.235t-2.809.441m12.993-3.111q.241.022.549.045h.768q2.567 0 3.796-1.302 1.251-1.301 1.251-3.595 0-2.403-1.185-3.639t-3.753-1.235q-.35 0-.724.022-.374 0-.702.044zm9.898-4.852q0 1.986-.615 3.463t-1.756 2.448q-1.119.97-2.743 1.456-1.624.485-3.643.485-.921 0-2.151-.088a16.4 16.4 0 0 1-2.414-.309V8.128q1.186-.22 2.458-.287a33 33 0 0 1 2.217-.088q1.953 0 3.533.44 1.602.442 2.743 1.39 1.141.949 1.756 2.426.615 1.48.615 3.551m2.859-7.63h3.424v15.284h-3.424zm9.819 7.63q0 1.125.263 2.03a5.1 5.1 0 0 0 .791 1.565q.527.64 1.272.993.747.353 1.712.353.944 0 1.69-.353a3.4 3.4 0 0 0 1.273-.993q.526-.66.79-1.566.285-.904.285-2.029t-.285-2.029q-.264-.926-.79-1.566a3.3 3.3 0 0 0-1.273-1.014q-.746-.354-1.69-.353-.966 0-1.712.375a3.55 3.55 0 0 0-1.272 1.014q-.505.64-.791 1.566a7.2 7.2 0 0 0-.263 2.007m11.61 0q0 1.963-.593 3.463-.57 1.478-1.58 2.492a6.6 6.6 0 0 1-2.414 1.5 8.6 8.6 0 0 1-2.985.507 8.5 8.5 0 0 1-2.941-.507 6.8 6.8 0 0 1-2.414-1.5q-1.031-1.014-1.624-2.492-.592-1.5-.592-3.463 0-1.962.614-3.44.615-1.5 1.646-2.515a6.9 6.9 0 0 1 2.414-1.522 8.4 8.4 0 0 1 2.897-.507q1.558 0 2.941.507a6.7 6.7 0 0 1 2.414 1.522q1.032 1.015 1.624 2.515.593 1.478.593 3.44"
        fill="#fff" />
</svg>